<?xml version="1.0" encoding="UTF-8"?>
<!DOCTYPE svg PUBLIC "-//W3C//DTD SVG 1.1//EN" "http://www.w3.org/Graphics/SVG/1.1/DTD/svg11.dtd">
<!-- Creator: CorelDRAW X5 -->
<svg xmlns="http://www.w3.org/2000/svg" xml:space="preserve" width="50.7998mm" height="25.908mm" style="shape-rendering:geometricPrecision; text-rendering:geometricPrecision; image-rendering:optimizeQuality; fill-rule:evenodd; clip-rule:evenodd"
viewBox="0 0 5080 2591"
 xmlns:xlink="http://www.w3.org/1999/xlink"
 xmlns:svg="http://www.w3.org/2000/svg">
 <defs>
  <style type="text/css">
   <![CDATA[
    .fil0 {fill:#0033DD;fill-rule:nonzero}
   ]]>
  </style>
 </defs>
 <g id="Layer_x0020_1">
  <metadata id="CorelCorpID_0Corel-Layer"/>
 </g>
 <g id="__x0023_Layer_x0020_1">
  <metadata id="CorelCorpID_1Corel-Layer"/>
  <path class="fil0" d="M5076 604l0 -30 0 -12 -19 7 11 -12 -5 3 10 -14c0,0 0,-2 0,0 -8,3 -15,6 -23,8 0,0 16,-12 26,-19l-12 0c-1,0 -1,-1 -1,-2 0,-1 0,-2 1,-2l10 -9c3,-2 3,-4 3,-7l-6 -46 -3 -20c-1,-5 -4,-8 -8,-10l-22 -7c-2,0 -2,-1 -2,-2 0,-2 1,-2 2,-2l22 0c2,0 4,-1 4,-4l-3 -20c-2,-11 -5,-21 -10,-31l-21 -32 -3 -4c-1,-3 -4,-4 -7,-4l-20 0c-1,0 -2,0 -3,-1 -1,-1 -1,-2 -1,-3 0,-1 0,-3 -1,-4 -1,-1 -2,-2 -3,-2l-15 0 0 -4c12,-3 25,-6 36,-10l-4 0c0,0 -41,-66 -43,-68l-34 -33 -5 -3 -22 -13c-4,-2 -8,-2 -12,0 -10,4 -19,10 -27,18 0,0 -5,0 -4,-3 4,-9 6,-18 7,-27 1,-6 -1,-11 -6,-14l-17 -12 -46 -27 -3 0 -2 0c-4,-2 -9,-2 -13,0 -13,8 -29,17 -42,25l-2 0c5,-9 10,-18 14,-28 0,0 0,-3 -3,0 -13,11 -28,24 -36,32 -7,7 -3,0 0,0l21 -42c1,-1 1,-2 0,-3 -1,-1 -2,-2 -3,-2l-27 -10 -4 0 -9 -7c-1,-1 -3,-1 -4,0 -2,0 -4,0 -6,0 -18,0 -27,35 -33,52 -1,4 -4,8 -7,12 -24,29 -45,60 -65,92 -1,2 -3,2 -5,1 -2,-1 -2,-2 -2,-4l64 -152c2,-4 2,-9 0,-13 -2,-4 -5,-7 -9,-9l-3 0c-4,-1 -7,-1 -11,0l-3 0c-3,1 -7,1 -10,0l-10 -3c-2,-1 -3,-1 -5,0 -75,106 -128,223 -160,349 0,3 -5,0 -4,0 31,-192 67,-353 74,-382 0,0 0,-2 0,0l0 3c-20,52 -35,105 -46,160 -12,46 15,-118 23,-163 1,-2 1,-4 0,-7 -1,-2 -2,-4 -5,-5 -2,-1 -4,-1 -7,0 -2,1 -4,2 -5,5 -3,-1 -5,0 -6,3 -4,11 -9,24 -15,40 1,-10 1,-20 0,-30 0,-5 -2,-10 -6,-14 -4,-4 -8,-6 -13,-7l-8 0c-2,0 -4,0 -5,1 -2,1 -3,3 -3,4 -10,42 -30,124 -67,268 -1,3 -3,4 -5,4 -3,0 -5,-1 -5,-4 11,-95 8,-190 -9,-284 -1,-5 -4,-8 -8,-9l-11 0 -15 0c-2,0 -4,1 -4,4 -3,33 -9,104 -25,205 0,2 -1,2 -2,2 -2,0 -2,-1 -2,-2 5,-70 2,-153 2,-192 0,-3 -1,-5 -3,-7 -2,-2 -5,-3 -7,-3l-61 16c-6,1 -10,4 -13,9 -42,75 -76,231 -104,360 0,3 -5,0 -4,0 13,-116 39,-229 77,-339 2,-2 2,-4 0,-6 -2,-2 -4,-2 -6,0l-28 14 -15 10c-9,6 -17,15 -21,25 -29,75 -52,152 -69,231 0,3 -2,5 -5,5 -3,0 -5,-2 -5,-5 8,-75 26,-148 54,-219l-55 46 -80 78c-7,7 -12,14 -16,23l-15 29c0,1 -1,2 -3,2 -1,0 -2,-1 -3,-2l0 -7c-1,-2 -1,-3 0,-5 2,-12 5,-24 9,-36 0,-2 0,-4 0,-6 3,-8 8,-20 11,-26l-8 5c-4,7 -7,14 -10,21l3 -14 -12 10c-2,8 -5,15 -7,23l-3 0 0 -13c-6,6 -11,13 -16,21 -4,15 -7,30 -12,46 -5,8 -9,17 -13,25l0 2c-8,36 -19,71 -27,107 -3,13 -6,26 -9,38 -1,2 -1,3 -3,4 0,1 0,2 0,4l0 3c-3,3 -5,6 -7,10l0 4c-1,2 -3,3 -5,3 -2,0 -4,-1 -5,-3l-13 -23c-4,-7 -10,-12 -18,-14 -6,-2 -12,-5 -17,-9 -1,-1 -1,-1 -2,-1 -1,0 -2,0 -2,1 0,9 -2,17 -7,24l-12 19 -12 22 -3 7 0 2 0 -11 -25 77c-3,0 -5,0 -4,-7 1,-7 4,-19 6,-30 0,-2 0,-3 -2,-4 -2,-1 -3,-1 -4,0 -10,8 -17,17 -21,29l-4 11c-1,1 -2,2 -3,2 -1,0 -2,-1 -3,-2 0,0 0,-5 -5,0 0,1 0,2 0,3 -3,13 -4,13 -8,29l-7 12c-2,7 -4,13 -6,20l-4 17 -4 0 0 -4 0 -5c0,-1 -4,0 -4,0l0 3c-14,19 -28,39 -40,60 -1,0 -2,0 -3,0 -1,0 -2,0 -3,-1 -1,-1 -1,-2 -1,-3l0 -3c7,-30 14,-59 20,-88 3,-8 6,-16 8,-24 4,-23 28,-89 27,-87 19,-60 21,-81 15,-85 -7,-4 -22,16 -32,30 -46,89 -123,162 -245,239l-6 4 -78 31c-98,57 -200,108 -202,109 -36,17 -67,40 -92,71 -5,8 -10,16 -14,25 0,1 0,2 0,3 -16,27 -26,56 -42,83 -6,11 -8,24 -14,35 -6,11 -15,36 -24,52 -20,38 -37,77 -52,117 -11,27 -21,55 -29,83 0,5 -4,10 -6,15 -5,24 -12,46 -19,70 -1,0 -2,0 -2,0 2,-10 4,-21 7,-31 10,-50 20,-100 31,-149 5,-20 14,-41 19,-61 2,-18 5,-35 10,-53l7 -21c11,-20 20,-41 32,-61 12,-20 19,-27 28,-41 5,-12 9,-25 13,-38 1,-2 1,-3 -1,-5 -2,-1 -3,-1 -5,0 -8,5 -15,11 -22,18 -6,6 -14,11 -22,17l-7 6c-39,28 -79,53 -121,77 -30,17 -58,37 -83,60l-7 7c-15,12 -29,26 -41,42 -19,28 -38,57 -55,86 -7,12 -12,25 -19,38 0,4 0,7 -4,11 -5,11 -10,22 -13,34 -2,4 -4,8 -6,13 -6,28 -17,55 -24,83 -13,59 -24,119 -37,179 -6,32 -18,62 -25,92 -4,16 -10,32 -18,46 -3,8 -6,16 -9,24 -12,21 -24,43 -37,64 -5,7 -10,13 -16,19 -4,5 -10,7 -13,12 -2,0 -3,0 -3,-2 5,-20 20,-39 24,-59 8,-35 18,-69 24,-105 7,-50 6,-102 8,-154 2,-88 11,-176 26,-263 7,-38 20,-73 37,-107 6,-11 9,-24 15,-35 6,-11 16,-30 24,-46l2 -5 0 -7c0,-1 0,-2 0,-4l0 -5c0,-1 -3,-9 -6,-6 -3,2 -5,6 -8,7 -2,1 -3,1 -5,0 0,0 -19,22 -24,28l-3 5 0 6c-6,8 -14,12 -19,20 -6,8 -15,25 -22,37 -1,0 -2,0 -2,-1 0,-1 -1,-1 0,-2 0,-1 0,-2 0,-3 0,-5 0,-11 3,-16l-3 0 0 2c-2,3 -5,5 -8,6 -12,6 -27,36 -32,46 -4,5 -9,10 -14,14l-13 32 -3 3 0 -5 7 -34c0,-1 0,-2 -1,-2 -1,-1 -2,-1 -2,-1 -39,13 -76,31 -111,54 0,0 -4,0 0,-2 4,-2 8,-12 10,-14 -7,4 -15,9 -21,15l-46 32c-2,-1 -4,-1 -6,0 -6,6 -11,13 -16,19 -3,4 -7,7 -12,9 -4,2 -8,5 -12,8l-46 50c-20,23 -38,47 -54,72 -6,11 -11,22 -15,33l-3 8c-1,2 -2,3 -4,4 -2,0 -4,0 -5,-2 -1,-1 -2,-3 -2,-5l0 -16c6,-22 15,-43 29,-61l4 -6 6 -13 0 -3 -10 0c-4,0 -8,1 -11,3l-16 9c-7,4 -14,9 -19,16 -9,11 -17,22 -24,35 -6,12 -9,27 -16,39 -3,3 -6,5 -9,9 -2,4 -7,14 -12,20 -4,6 -10,10 -14,17 -4,6 -9,22 -14,32 -22,43 -35,88 -40,136l0 22c-1,9 -2,19 -3,29l0 180 0 46c0,2 -1,4 -4,4 -2,0 -4,-1 -4,-4 0,-24 -7,-49 -10,-73 -2,-16 -8,-28 -10,-46 -4,-30 -11,-62 -15,-92 -4,-18 -7,-36 -8,-54 0,-74 3,-148 11,-222 1,-13 1,-27 0,-40l-3 -21 0 -27c-1,-12 -1,-24 0,-36l-3 0c-3,7 -6,18 -9,29 -3,10 0,18 0,18 0,0 -3,4 -4,3l0 -7 -4 0c-4,6 -7,13 -11,19l0 3c-1,3 -3,5 -6,6 -4,5 -8,11 -10,18l-4 3c-2,3 -4,7 -6,10l-3 0 0 -3c3,-6 5,-12 7,-18 0,-11 6,-22 7,-33 0,-5 0,-10 0,-15 -11,17 -20,35 -28,53 -4,6 -8,12 -10,19 -2,11 -5,21 -9,31 -4,6 -11,10 -15,16 -4,6 -13,21 -20,32 -26,46 -42,94 -49,146 -2,19 -3,37 -3,56 -1,7 -1,13 0,20 0,-2 -3,-9 -4,-13 -2,-13 -7,-24 -10,-36 -6,-36 -14,-73 -20,-108 -1,-5 -3,-9 -7,-12 -3,-8 -4,-16 -4,-24 0,-2 -1,-3 -3,-3 -1,-1 -2,-1 -3,0 0,5 0,9 -2,13l-4 0c-1,-1 -1,-1 -3,-1 -1,0 -2,0 -3,1 -4,7 -6,15 -7,23 0,3 0,7 0,10 1,6 -1,11 -5,15 0,-1 -1,-2 -3,-2 -1,0 -2,1 -3,2 -2,2 -2,4 -2,7 -3,-7 -5,-15 -7,-22 -1,-2 -2,-2 -3,-2 -2,0 -3,1 -3,2l0 20 0 72c0,49 4,100 6,150 0,33 9,64 12,97 3,33 6,51 9,78 0,10 1,20 4,30 -5,-10 -8,-21 -10,-33l-25 -76c-7,-13 -12,-27 -15,-41 -2,-12 -10,-22 -12,-32l-7 -15c-7,-14 -12,-28 -17,-42l-10 -22c-5,-25 -22,-46 -27,-71 -5,-14 -11,-28 -19,-41 -7,-15 -14,-30 -21,-46 -4,-5 -6,-12 -10,-18l-7 -4c-1,-2 -3,-3 -6,-2 -2,1 -4,2 -4,5 -1,9 -1,18 0,27 1,1 1,2 0,3 0,1 0,2 0,3l0 49c-1,2 -2,2 -3,2 -2,0 -3,-1 -3,-2l-4 -8c-1,-1 -2,-2 -3,-2 -1,0 -3,1 -3,2 -2,14 -3,28 -4,42 -3,11 -5,21 -6,32 2,23 5,45 10,67 0,7 4,14 6,21 3,24 16,48 20,73l9 23c3,14 12,28 15,43 2,15 10,23 12,35 2,12 9,18 11,29 2,10 9,18 11,28 5,16 10,31 17,46 1,1 1,2 0,3 -1,1 -2,1 -3,1 -9,3 -17,-12 -23,-18 -20,-20 -39,-42 -60,-61 -22,-21 -45,-41 -71,-57l-27 -12 -6 0c-9,-5 -15,-12 -24,-18l-17 -5c-11,-6 -22,-19 -35,-21l-12 0c-4,0 -18,-6 -27,-8 -2,0 -5,0 -7,0 -2,0 -4,1 -5,3 -1,2 -2,3 -1,5 0,17 11,16 21,23 10,7 6,7 9,9 -1,0 -2,1 -3,2 -1,1 0,3 1,4 23,30 52,51 76,77 10,11 19,22 28,34l14 31 16 23c5,6 0,10 0,15 0,5 5,6 7,11 -10,3 -21,6 -32,7 -17,3 -33,10 -49,12 -30,5 -59,17 -87,21 -18,3 -32,11 -50,14 -59,10 -119,32 -178,42 -8,0 -13,5 -21,6 -35,6 -69,19 -105,25 -36,6 -64,17 -97,23 -79,13 -158,38 -237,52 -7,0 -11,4 -17,5 -30,5 -62,16 -92,21l-27 8c-46,8 -98,30 -147,39 -19,3 -37,12 -55,16l-24 9c-32,6 -43,23 -40,46 6,46 49,29 77,26 51,-5 103,-14 155,-22 25,-4 46,-12 73,-15 68,-10 139,-31 206,-42 26,-4 51,-14 77,-18l22 -6c27,-5 57,-15 84,-19l33 -9c38,-6 77,-21 115,-27l40 -11c43,-7 86,-24 128,-31l46 -12c61,-11 122,-36 185,-46 29,-10 59,-17 90,-22 4,0 6,2 6,6 -1,1 -1,2 0,4 1,1 2,1 4,0l4 0c0,0 3,14 8,16l0 -8c0,-4 0,-8 0,-12l3 0 2 0c3,8 7,16 11,24 2,2 3,4 4,7 1,-11 -1,-22 -4,-33 0,0 0,-3 2,-3l3 0c2,2 3,4 4,7l8 22c3,17 7,34 9,50 2,16 7,9 8,18 0,9 0,18 0,27 1,6 1,13 0,19l3 -3 4 0c1,2 1,3 0,5 0,9 2,19 0,29l3 0c3,-5 5,-10 7,-15 3,10 4,20 3,30 0,0 0,3 3,0 5,-4 7,-10 7,-16 0,2 2,4 5,2 2,-2 6,-14 10,-21l3 0c9,-16 13,-33 14,-52 0,-2 0,-5 0,-7 -1,-2 -1,-5 0,-7l0 -3c1,-4 2,-8 3,-12 0,-6 5,-12 6,-17 6,-31 6,-61 0,-92 -1,-1 -1,-2 0,-3 1,-1 2,-1 3,0 4,8 7,16 11,24 13,18 20,39 33,55 20,25 37,53 57,78 7,9 12,21 18,30l8 15c15,20 24,46 39,67l10 19c9,12 18,22 26,32 1,1 2,2 3,2 1,0 3,-1 3,-2 0,-1 0,-2 0,-3 1,-1 1,-2 0,-3 5,4 8,12 13,16 6,5 13,10 20,13 2,3 4,4 7,2 3,-2 4,-4 2,-7 -9,-18 -16,-36 -21,-55 -1,-3 -3,-6 -5,-9 -4,-9 -7,-18 -9,-28 -4,-17 -19,-30 -21,-43 -3,-22 -12,-42 -24,-60 -4,-5 -5,-13 -9,-18 -4,-5 0,-2 0,0 0,2 8,6 13,8 5,2 11,3 16,3 1,0 2,0 3,-2 1,-1 0,-2 0,-3 -6,-5 -13,-8 -19,-13 -6,-5 -18,-15 -24,-22 -1,-4 -3,-7 -5,-11l-4 -6 8 9c22,19 45,35 70,49 8,5 36,23 43,12 6,3 14,4 18,0 6,4 11,3 17,5 6,2 8,6 13,8l5 0c4,1 7,0 8,-4 2,-4 1,-7 -2,-9 -12,-7 -25,-13 -37,-21 -2,-1 -4,-3 -6,-4 -1,-1 -2,-3 -2,-5 0,-2 1,-3 2,-5 1,0 3,0 4,0l6 0c10,4 19,8 28,14 17,10 36,17 56,21 24,-1 48,-4 71,-12 4,-1 8,-2 12,-4 7,-5 15,-8 23,-11 6,0 4,-10 -4,-9 -28,1 -53,-6 -75,-22l-12 -7 -22 -28 -37 -40c-13,-16 -26,-35 -39,-52 -5,-6 -9,-13 -12,-20l3 0c19,25 39,47 61,69l10 11 40 34c92,63 272,30 272,30 0,0 73,-10 75,-11l4 0 7 0c2,-1 3,-2 3,-5 0,-2 -1,-4 -3,-5l-9 -3c-15,-5 -29,-9 -40,-13l-18 -7c-51,-22 -97,-52 -139,-89 -19,-17 -36,-38 -54,-56l-6 -7c0,0 0,-5 3,-3l46 46c52,52 112,89 182,111 11,2 40,13 60,20 10,2 20,2 30,0 10,-1 20,-1 30,0l16 -3 2 0c-2,-1 -2,-3 0,-4 5,-8 11,-12 21,-13 17,-4 34,-5 52,-4l13 0c3,0 3,-5 0,-5 9,0 18,0 27,0l14 0c9,-1 18,-1 27,0 4,0 6,-3 9,-2l5 0c1,0 2,-1 2,-3 0,-1 -1,-2 -2,-3 -8,0 -16,-1 -24,-2l-20 0c-18,-2 -35,-6 -52,-10 -30,-6 -60,-14 -89,-25l-21 -8c-12,-6 -24,-12 -36,-18 -21,-12 -41,-27 -61,-42l-5 -3c-1,-2 -1,-4 0,-6 1,-1 2,-2 3,-2 1,0 3,1 3,2l28 20c44,23 90,38 138,46 23,7 46,13 70,18 18,2 37,2 55,0 6,0 19,-4 27,-5 4,0 8,-2 11,-3l4 0 0 -4 0 -2c13,-2 25,-7 37,-13 8,-8 17,-14 27,-18 8,-2 16,-5 23,-8l7 0 3 0 18 -8c1,0 2,-1 2,-3 0,-1 -1,-2 -2,-3l-18 -9 -5 0 -7 2c-24,2 -47,-2 -70,-11l-15 -5 -11 -5 -41 -23c-24,-11 -44,-22 -53,-27 -1,-1 -2,-2 -2,-3 0,-1 1,-3 2,-3 2,-1 3,-1 5,0 50,24 101,41 155,52l60 15c0,0 46,9 106,25 41,11 80,29 120,43 8,3 18,6 25,8l15 3c1,-1 1,-2 0,-3 -6,-4 -13,-6 -19,-10 -6,-4 -5,-5 -8,-7 -2,-1 -4,-3 -5,-5 0,0 -6,0 -8,-4l-3 -4 -3 -5 -7 -3 -10 -6c1,-1 2,-1 4,0 5,2 10,5 15,6 12,3 24,7 36,10l10 0c-7,-3 -14,-5 -21,-7 -4,-2 -8,-4 -12,-6l-38 -14c-63,-23 -125,-51 -185,-81 -50,-33 -96,-71 -139,-113l-10 -9c-2,-1 -3,-3 -3,-5 0,-2 1,-4 2,-6 1,-2 3,-3 6,-3 2,0 4,1 6,2 46,31 88,65 134,92 18,10 38,15 55,24 40,18 82,32 125,43 8,2 17,3 25,3 5,0 10,-3 15,0l2 0 28 -15 30 -19 7 -6c-2,-2 -3,-3 -6,-4 14,-1 26,-5 38,-12 1,-1 2,-3 1,-5 -1,-2 -2,-3 -4,-3 -10,0 -21,-1 -31,-2 -8,-1 -16,-3 -23,-6l-22 -6c-59,-19 -113,-47 -161,-86 -10,-7 -19,-15 -28,-23 0,-1 1,-2 1,-2 1,-1 2,-1 3,0 12,7 23,15 35,22 29,18 60,32 90,49 9,6 21,8 31,13l7 4c24,9 48,15 74,16 26,1 51,-2 75,-9 17,-10 34,-18 53,-23 14,-4 29,-8 43,-9l15 -16 4 0 57 0 -3 -2c-2,-3 -2,-5 -2,-8 1,-3 2,-5 5,-7l9 -6c2,0 3,0 5,0 5,-1 9,-3 13,-5 12,0 36,-10 49,-12 13,-2 66,-28 74,-27 14,-5 27,-9 41,-12l10 -6c8,-2 16,-4 23,-7 2,-1 4,-2 5,-4 1,-2 1,-4 0,-6 -1,-2 -3,-3 -5,-3l-11 0 -3 0c-1,-1 -1,-2 0,-4 9,-3 18,-6 27,-8 8,0 17,-12 24,-12l10 -4 -7 0 12 -6 30 -13 38 -19 32 -19 58 -41 17 -13 66 -51c2,-2 4,-3 6,-5 18,-10 38,-16 58,-18 4,0 6,-3 9,-4 6,-1 11,-1 17,0 5,0 10,0 15,0l15 3 6 0 13 0 12 0c6,-1 12,-2 18,-6 2,-1 5,-3 6,-5l5 -4 15 -14 10 -22 4 -4c3,-2 6,-4 9,-6l6 -3c5,-2 9,-3 14,-3 5,1 9,3 13,6 4,3 6,0 5,-3 -3,-6 -8,-10 -14,-13 -6,-3 -12,-5 -18,-5l-38 0c-2,0 -3,0 -4,-1 -1,-1 -2,-2 -2,-4 0,-3 2,-5 5,-5l8 0 20 -4c22,-3 42,-12 59,-26l3 -3 33 -40 27 -34c0,-2 1,-4 3,-5 13,-11 24,-24 36,-36 7,-4 14,-7 21,-9 3,-1 6,-3 9,-6l3 0 -4 0c11,-10 22,-19 34,-27l11 -6c3,-1 5,-2 7,-4 12,-9 26,-16 40,-22l8 -4c4,-2 9,-3 13,-4 19,-3 37,-3 56,0l29 9 4 0c8,4 15,6 24,8l6 0c3,0 5,0 8,0l7 0 3 0c8,-4 -8,-11 -13,-12l-17 -7 -46 -20c-1,-2 -2,-4 -3,-6 0,-2 0,-4 1,-6 1,-2 2,-4 4,-5 2,-1 4,-2 6,-3 12,-3 23,-6 35,-7 2,-1 4,-2 5,-4 1,-2 1,-4 0,-7 -1,-2 -3,-3 -6,-3l-4 0c0,0 -7,0 -8,-4 -1,-4 5,-6 6,-7l3 0 13 -4 5 0c24,-6 46,-16 67,-28l53 -40 9 -6 9 -8 236 -173 8 -4c2,0 3,-2 3,-4 0,-2 0,-3 -2,-4 -1,-1 -3,-1 -4,-1l-6 0c0,0 -3,0 -3,-2 -1,-2 -1,-3 0,-5 4,-3 8,-6 12,-8l37 -25 38 -20 11 -7 3 0 18 -12 40 -29 2 0 23 -20 3 -5 0 -3c-2,0 -3,0 -5,0 0,0 8,-6 5,-6 -1,-1 -2,-2 -2,-3 0,-1 1,-2 2,-3l10 -2 3 0 11 -5 -11 0c14,-5 27,-12 38,-20 0,-2 0,-3 0,-5 11,-9 21,-20 29,-31l8 -15 0 -3c0,-1 0,-2 0,-2 -6,0 -11,0 -17,0l6 0c10,-3 18,-8 24,-15 0,0 13,-17 0,-16l-8 0 -3 0c6,-3 12,-8 17,-13 -3,0 -5,1 -7,3 7,-8 13,-16 19,-24 1,-1 1,-2 0,-3l-3 0c2,-5 4,-9 7,-13l-3 0 3 -5c3,-8 9,-12 18,-14 11,0 21,-4 29,-12 1,0 2,-1 2,-2l0 -4c5,-7 7,-14 8,-22 1,-8 -1,-16 -4,-23z"/>
 </g>
</svg>
